<svg width="18" height="19" viewBox="0 0 18 19" fill="none" xmlns="http://www.w3.org/2000/svg">
<path fill-rule="evenodd" clip-rule="evenodd" d="M12.1866 11.9713H12.9766L17.2166 16.2313C17.6266 16.6413 17.6266 17.3113 17.2166 17.7213C16.8066 18.1313 16.1366 18.1313 15.7266 17.7213L11.4766 13.4713V12.6813L11.2066 12.4013C9.80658 13.6013 7.89658 14.2213 5.86658 13.8813C3.08658 13.4113 0.866578 11.0913 0.526578 8.29133C0.00657776 4.06133 3.56658 0.501329 7.79658 1.02133C10.5966 1.36133 12.9166 3.58133 13.3866 6.36133C13.7266 8.39133 13.1066 10.3013 11.9066 11.7013L12.1866 11.9713ZM2.47658 7.47133C2.47658 9.96133 4.48658 11.9713 6.97658 11.9713C9.46658 11.9713 11.4766 9.96133 11.4766 7.47133C11.4766 4.98133 9.46658 2.97133 6.97658 2.97133C4.48658 2.97133 2.47658 4.98133 2.47658 7.47133Z" fill="#A2A2A4"/>
</svg>
